# xmcd CD database file
#
# Track frame offsets:
#	150
#	14342
#	28312
#	47235
#	76030
#	93255
#	123965
#	137352
#	154090
#	175207
#	200840
#	216672
#	232910
#	258510
#
# Disc length: 3621 seconds
#
# Revision: 1
# Processed by: cddbd v1.4PL0 Copyright (c) Steve Scherf et al.
# Submitted via: CDex 1.50Beta5
#
DISCID=bc0e230e
DTITLE=Billie Holiday - I Giganti Jazz and Pop
DYEAR=2000
DGENRE=Jazz
TTITLE0=Billie's Blues (I love my man)
TTITLE1=The man I love
TTITLE2=They can't take that away from me
TTITLE3=Body and soul
TTITLE4=But not for me
TTITLE5=Embraceable you
TTITLE6=Love for sale
TTITLE7=Stormy weather
TTITLE8=Ain't misbehavin'
TTITLE9=I get a kick out of you
TTITLE10=Blue moon
TTITLE11=Cheek to cheek
TTITLE12=All or nothing at all
TTITLE13=Softly
EXTD=YEAR: 2000
EXTT0=
EXTT1=
EXTT2=
EXTT3=
EXTT4=
EXTT5=
EXTT6=
EXTT7=
EXTT8=
EXTT9=
EXTT10=
EXTT11=
EXTT12=
EXTT13=
PLAYORDER=
